<svg xmlns="http://www.w3.org/2000/svg"
shape-rendering="geometricPrecision"
width="4000" height="4000" viewBox="0 0 1024 1024"><rect width="100%" height="100%" fill="#FEFEFD" />
  <metadata>null</metadata>
  
  <!-- Red circular outline -->
  <circle cx="512" cy="512" r="480" fill="none" stroke="#FF0000" stroke-width="8" />

<path d="
M 335.48 495.107
C 335.953 491.764 335.985 488.342 336.404 484.982
C 337.541 475.868 339.115 466.523 341.95 457.764
C 342.492 457.102 343.087 457.967 343.648 458.383
C 344.951 459.352 346.186 460.411 347.485 461.389
C 353.412 465.848 359.347 470.316 365.125 474.966
C 373.07 481.358 381.267 487.448 389.319 493.705
C 397.358 499.951 405.147 506.549 413.228 512.735
C 418.863 517.048 424.443 521.449 430.099 525.746
C 433.39 528.246 437.041 530.62 439.958 533.561
C 439.834 535.028 437.272 537.139 436.328 538.257
C 432.602 542.666 428.556 546.806 424.87 551.246
C 411.846 566.937 398.204 582.29 384.472 597.364
C 381.066 601.103 377.71 604.876 374.376 608.679
C 373.547 609.624 371.864 612.516 370.64 612.8
C 368.101 610.947 366.349 607.617 364.593 605.068
C 360.486 599.104 356.892 592.758 353.639 586.287
C 339.682 558.524 332.674 526.216 335.48 495.107 Z"
opacity="1" fill="rgb(54,131,187)" fill-rule="evenodd" />
<path d="
M 346.402 444.022
C 347.883 441.355 348.739 438.173 349.869 435.335
C 351.602 430.982 353.719 426.653 355.945 422.532
C 365.672 404.519 377.935 388.104 392.752 373.958
C 397.339 369.579 402.09 365.338 407.149 361.509
C 409.02 360.092 411.279 357.679 413.545 357.064
C 420.221 361.206 426.307 367.005 432.495 371.861
C 434.087 373.11 435.642 374.404 437.26 375.619
C 437.688 375.939 438.654 376.989 439.164 376.946
C 438.974 373.643 438.674 369.27 442.57 367.944
C 443.833 367.514 445.276 367.62 446.591 367.548
C 445.417 366.281 443.61 365.311 442.228 364.238
C 436.254 359.598 429.301 355.25 424.022 349.831
C 428.922 346.047 435.035 343.318 440.654 340.794
C 443.102 339.695 445.923 338.013 448.591 337.653
C 451.843 340.048 454.847 342.808 458.099 345.226
C 477.88 359.936 497.383 375.039 516.828 390.19
C 522.795 394.839 528.844 399.379 534.838 403.991
C 538.721 406.979 542.389 410.288 546.438 413.055
C 538.439 422.603 529.896 431.678 521.776 441.12
C 508.554 456.493 495.246 471.844 481.56 486.805
C 474.201 494.85 466.887 503.024 459.727 511.251
C 455.866 515.686 452.075 520.298 447.927 524.467
C 446.56 524.466 444.241 522.037 443.112 521.23
C 438.889 518.213 434.762 515.02 430.78 511.687
C 429.749 510.824 426.58 509.054 426.32 507.702
C 427.547 505.413 429.855 503.552 431.524 501.561
C 435.75 496.521 440.408 491.844 444.753 486.908
C 458.681 471.088 473.296 455.8 486.935 439.733
C 491.421 434.449 496.001 429.232 500.718 424.153
C 502.989 421.707 505.799 418.875 505.228 415.274
C 504.655 411.655 501.204 409.619 498.46 407.665
C 492.996 403.775 487.955 399.31 482.62 395.263
C 483.143 398.311 483.389 402.143 480.168 403.788
C 479.078 404.344 477.492 404.685 476.283 404.71
C 475.195 404.733 475.424 404.353 475.211 404.891
C 480.043 409.405 486.596 412.256 491.301 416.998
C 486.908 423.194 481.141 428.384 476.242 434.159
C 466.052 446.17 455.387 457.784 444.998 469.623
C 441.853 473.207 438.37 476.5 435.279 480.129
C 430.797 485.391 426.114 490.629 421.322 495.611
C 420.144 496.835 418.239 500.293 416.497 500.025
C 413.44 498.13 410.736 495.495 407.879 493.309
C 399.835 487.154 391.982 480.752 383.932 474.608
C 374.673 467.543 365.465 460.401 356.305 453.207
C 352.906 450.537 349.225 448.152 346.003 445.269
C 346.2 444.401 346.065 444.816 346.402 444.022 Z
M 444.574 380.9
C 447.187 383.517 450.562 385.604 453.512 387.835
C 459.027 392.006 464.551 396.181 470.014 400.416
C 470.152 400.211 469.907 399.144 469.893 398.86
C 469.837 397.673 469.813 396.38 470.202 395.236
C 470.823 393.41 472.751 391.899 474.575 391.413
C 475.406 391.191 476.338 391.359 477.134 391.034
C 469.853 383.915 460.589 378.742 452.959 371.968
C 452.608 371.661 452.307 370.809 451.905 371.046
C 451.483 371.295 452.003 372.021 452.041 372.509
C 452.157 373.978 452.129 375.87 451.59 377.254
C 450.573 379.861 446.981 380.44 444.574 380.9 Z"
opacity="1" fill="rgb(52,130,186)" fill-rule="evenodd" />
<path d="
M 378.219 621.878
C 383.838 615.651 389.24 609.217 394.829 602.958
C 397.095 600.421 399.1 597.605 401.632 595.321
C 402.426 595.28 403.132 596.275 403.733 596.744
C 405.822 598.373 407.941 599.964 410.041 601.579
C 418.263 607.903 426.199 614.613 434.355 621.022
C 430.285 625.021 426.777 629.754 423.023 634.056
C 418.148 639.643 412.802 644.947 408.347 650.889
C 407.55 650.938 406.574 649.861 405.952 649.417
C 403.956 647.993 402.111 646.34 400.232 644.768
C 395.227 640.585 390.311 636.142 385.799 631.42
C 383.109 628.605 380.759 625.376 377.988 622.665
C 378.065 622.403 378.142 622.14 378.219 621.878 Z"
opacity="1" fill="rgb(53,129,186)" fill-rule="evenodd" />
<path d="
M 409.735 586.039
C 412.809 583.01 415.416 579.393 418.246 576.129
C 424.74 568.638 431.336 561.213 437.917 553.801
C 440.482 550.913 443.005 547.991 445.584 545.114
C 446.811 543.745 448.003 541.805 449.599 540.877
C 456.839 546.007 463.906 551.774 470.848 557.317
C 473.389 559.347 475.932 561.374 478.51 563.356
C 479.612 564.203 480.605 565.342 481.896 565.905
C 474.182 575.724 465.361 584.913 457.141 594.339
C 453.542 598.467 450.038 602.668 446.418 606.78
C 445.012 608.377 443.636 610.584 441.973 611.887
C 439.382 611.04 436.521 607.882 434.388 606.183
C 428.746 601.688 423.058 597.245 417.468 592.69
C 415.634 591.195 413.812 589.687 411.953 588.222
C 411.207 587.634 409.987 586.936 409.735 586.039 Z"
opacity="1" fill="rgb(52,130,186)" fill-rule="evenodd" />
<path d="
M 411.974 506.613
C 412.073 504.24 414.655 500.815 417.3 500.768
C 419.911 500.721 422.436 502.035 423.935 504.187
C 424.523 505.032 425.281 506.435 425.226 507.499
C 424.948 512.892 417.712 516.777 413.64 512.387
C 412.384 511.034 411.899 508.41 411.974 506.613 Z"
opacity="1" fill="rgb(54,128,180)" fill-rule="evenodd" />
<path d="
M 417.825 658.111
C 417.897 657.35 418.733 656.649 419.224 656.066
C 420.535 654.508 421.886 652.991 423.226 651.459
C 428.216 645.751 432.895 639.741 438.09 634.213
C 446.166 625.62 453.44 616.251 461.165 607.346
C 468.499 598.893 475.787 590.402 483.134 581.961
C 485.68 579.036 488.535 576.32 490.955 573.296
C 492.213 573.335 493.691 575.031 494.692 575.779
C 498.085 578.317 501.3 581.093 504.695 583.632
C 518.117 593.669 531.043 604.38 544.517 614.348
C 548.489 617.287 552.245 620.514 556.199 623.479
C 556.913 624.014 560.008 625.928 559.898 626.811
C 555.753 632.567 550.475 637.874 545.675 643.095
C 538.662 650.72 532.05 658.773 525.216 666.559
C 521.089 671.262 516.914 675.927 512.784 680.627
C 510.994 682.665 509.11 685.77 506.919 687.324
C 504.277 687.533 501.447 686.964 498.82 686.677
C 493.726 686.119 488.705 685.452 483.658 684.553
C 459.934 680.328 438.132 670.85 417.825 658.111 Z"
opacity="1" fill="rgb(53,131,186)" fill-rule="evenodd" />
<path d="
M 457.354 531.518
C 462.122 525.296 467.684 519.627 472.904 513.789
C 484.536 500.78 496.138 487.713 507.632 474.58
C 517.729 463.044 528.029 451.694 538.087 440.129
C 542.649 434.884 547.25 429.688 551.947 424.561
C 553.189 423.205 554.208 421.619 555.519 420.336
C 556.38 420.037 557.316 421.191 557.981 421.725
C 560.1 423.427 562.276 425.055 564.433 426.708
C 573.333 433.529 582.464 440.187 591.075 447.367
C 588.532 451.385 584.685 455.043 581.569 458.654
C 579.867 460.627 577.687 462.672 577.637 465.45
C 577.538 470.848 584.22 473.945 587.79 476.965
C 598.735 486.226 610.677 494.339 621.88 503.285
C 628.773 508.789 635.839 514.1 642.845 519.459
C 644.422 520.665 645.977 521.899 647.548 523.112
C 647.841 523.337 649.086 524.091 648.898 524.443
C 647.903 526.363 645.947 527.923 644.575 529.59
C 640.468 534.581 636.029 539.321 631.682 544.102
C 621.633 555.155 612.106 566.691 602.091 577.782
C 597.739 582.602 593.637 587.644 589.234 592.423
C 587.82 593.958 585.939 597.103 584.084 598
C 581.144 596.431 578.621 593.862 575.947 591.885
C 570.533 587.882 565.228 583.732 559.885 579.636
C 557.286 577.643 554.199 573.865 551.005 572.99
C 546.715 571.815 544.6 574.741 542.152 577.625
C 540.065 580.083 538.037 582.596 535.875 584.991
C 534.806 586.174 533.813 587.414 532.79 588.635
C 532.548 588.925 532.032 589.662 531.575 589.582
C 530.561 589.405 529.152 587.783 528.345 587.152
C 525.731 585.112 523.065 583.125 520.427 581.115
C 511.057 573.98 501.848 566.595 492.61 559.318
C 483.584 552.182 474.208 545.51 465.251 538.281
C 462.563 536.112 459.672 534.252 457.072 531.96
C 457.166 531.813 457.26 531.666 457.354 531.518 Z"
opacity="1" fill="rgb(53,131,187)" fill-rule="evenodd" />
<path d="
M 462.522 332.415
C 473.388 329.517 483.954 326.351 495.162 324.877
C 521.242 321.447 548.229 324.092 573.179 332.355
C 581.26 335.032 589.313 338.245 596.894 342.129
C 598.766 343.088 600.62 344.081 602.47 345.082
C 602.944 345.338 604.249 345.808 604.46 346.299
C 602.219 349.284 599.519 351.92 597.072 354.742
C 590.463 362.367 583.841 369.994 577.266 377.645
C 569.735 386.409 562.426 395.599 554.291 403.816
C 553.769 403.878 552.999 403.048 552.611 402.763
C 551.157 401.694 549.721 400.596 548.278 399.51
C 542.435 395.117 536.669 390.636 530.856 386.205
C 513.613 373.059 496.495 359.73 479.341 346.469
C 473.557 341.998 467.943 337.108 462.004 332.89
C 462.176 332.732 462.349 332.573 462.522 332.415 Z"
opacity="1" fill="rgb(52,129,186)" fill-rule="evenodd" />
<path d="
M 482.911 565.626
C 482.833 560.215 489.177 557.768 493.297 560.674
C 495.292 562.081 495.805 564.184 495.813 566.504
C 495.831 571.406 490.077 573.304 486.106 571.299
C 484.115 570.294 482.943 567.808 482.911 565.626 Z"
opacity="1" fill="rgb(53,127,180)" fill-rule="evenodd" />
<path d="
M 522.795 687.035
C 532.288 676.517 541.53 665.718 550.728 654.936
C 556.728 647.903 562.411 640.176 569.011 633.708
C 572.144 634.817 575.089 638.236 577.725 640.248
C 584.054 645.08 590.067 650.448 596.592 655.008
C 599.151 656.796 601.525 658.824 604.019 660.699
C 605.126 661.532 606.904 662.678 607.52 663.946
C 606.076 665.464 603.362 666.341 601.51 667.274
C 597.248 669.423 592.983 671.443 588.589 673.307
C 572.962 679.935 556.387 684.593 539.472 686.319
C 535.422 686.732 531.35 687.168 527.274 687.321
C 525.829 687.376 524.171 687.75 522.748 687.511
C 522.764 687.353 522.779 687.194 522.795 687.035 Z"
opacity="1" fill="rgb(51,129,185)" fill-rule="evenodd" />
<path d="
M 541.479 596.538
C 544.109 593.203 546.987 589.67 550.083 586.77
C 551.03 587.112 551.895 588.179 552.672 588.826
C 554.306 590.186 556.025 591.473 557.701 592.782
C 563.916 597.636 570.028 603.141 576.651 607.419
C 575.848 609.168 574.049 610.697 572.784 612.124
C 571.142 613.977 569.651 616.139 567.838 617.82
C 567.197 617.777 566.161 616.664 565.69 616.259
C 564.07 614.865 562.357 613.588 560.69 612.251
C 556.353 608.773 551.858 605.494 547.468 602.082
C 545.407 600.479 542.909 598.974 541.096 597.113
C 541.224 596.921 541.351 596.73 541.479 596.538 Z"
opacity="1" fill="rgb(51,127,181)" fill-rule="evenodd" />
<path d="
M 563.696 411.022
C 567.184 407.214 570.446 403.106 573.755 399.134
C 577.935 394.116 582.582 389.394 586.869 384.446
C 596.036 373.867 604.93 362.989 614.424 352.7
C 615.17 352.449 615.634 352.954 616.252 353.353
C 617.652 354.26 619.03 355.198 620.409 356.137
C 626.379 360.204 632.288 364.551 637.584 369.475
C 637.385 370.975 635.206 372.638 634.241 373.755
C 631.221 377.25 628.001 380.576 625.021 384.105
C 616.336 394.389 607.414 404.453 598.492 414.529
C 595.565 417.834 592.668 421.157 589.683 424.41
C 588.57 425.623 587.515 427.519 586.17 428.452
C 583.737 427.213 581.456 425.072 579.284 423.405
C 575.875 420.789 572.363 418.303 569.031 415.588
C 567.543 414.375 564.393 412.792 563.696 411.022 Z"
opacity="1" fill="rgb(52,128,186)" fill-rule="evenodd" />
<path d="
M 576.859 624.571
C 580.028 621.373 582.777 617.751 585.862 614.471
C 587.646 615.434 589.265 617.028 590.848 618.306
C 593.24 620.237 595.748 622.034 598.177 623.92
C 605.334 629.478 612.743 634.772 619.776 640.48
C 622.345 642.565 625.074 644.442 627.618 646.563
C 628.133 646.992 629.982 648.124 629.878 648.867
C 628.812 649.924 627.372 650.586 626.16 651.459
C 623.634 653.278 621.114 655.295 618.457 656.905
C 617.035 656.572 615.501 654.939 614.334 654.061
C 611.519 651.944 608.666 649.87 605.91 647.674
C 600.35 643.244 594.66 638.991 589.06 634.615
C 584.995 631.436 581.085 627.605 576.669 624.934
C 576.732 624.813 576.795 624.692 576.859 624.571 Z"
opacity="1" fill="rgb(53,127,182)" fill-rule="evenodd" />
<path d="
M 591.823 464.583
C 594.742 461.28 597.464 457.831 600.601 454.716
C 601.524 454.662 602.602 455.929 603.295 456.498
C 605.373 458.208 607.464 459.938 609.614 461.555
C 615.773 466.185 621.872 471.04 627.788 475.976
C 630.375 478.134 633.612 481.664 637.036 482.291
C 643.09 483.398 646.993 474.902 650.482 471.13
C 661.931 458.754 672.281 445.265 684.1 433.247
C 684.712 433.145 685.096 434.571 685.294 435.077
C 686.132 437.218 686.979 439.359 687.829 441.497
C 690.643 448.573 692.91 455.979 694.544 463.417
C 695.022 465.588 696.482 468.744 696.002 470.94
C 695.336 472.193 693.9 473.171 692.948 474.22
C 690.643 476.764 688.345 479.316 686.025 481.847
C 679.351 489.128 673.005 496.778 666.524 504.235
C 664.102 507.023 661.604 509.751 659.153 512.515
C 658.588 513.152 657.501 515.131 656.694 515.285
C 640.075 503.957 624.572 490.689 608.704 478.341
C 603.072 473.958 597.655 468.87 591.718 464.93
C 591.753 464.814 591.788 464.699 591.823 464.583 Z"
opacity="1" fill="rgb(53,129,185)" fill-rule="evenodd" />
<path d="
M 593.821 604.951
C 609.377 587.465 624.58 569.664 640.084 552.125
C 646.026 545.402 651.416 537.855 657.982 531.726
C 658.824 531.544 659.435 532.432 660.087 532.909
C 662.079 534.366 664.052 535.851 666.032 537.324
C 672.501 542.135 678.7 547.299 685.158 552.12
C 687.011 553.504 688.861 554.883 690.692 556.294
C 691.262 556.734 692.232 557.185 692.476 557.896
C 686.015 582.116 672.488 605.326 656.09 624.131
C 650.86 630.127 644.993 635.288 639.402 640.891
C 637.897 640.448 636.439 638.742 635.185 637.804
C 631.589 635.115 628.041 632.359 624.546 629.539
C 614.366 621.324 603.239 614.137 593.514 605.376
C 593.616 605.234 593.718 605.092 593.821 604.951 Z"
opacity="1" fill="rgb(53,130,186)" fill-rule="evenodd" />
<path d="
M 595.94 435.002
C 601.222 428.386 607.243 422.355 612.829 416.002
C 623.986 403.311 634.75 390.261 646.059 377.705
C 647.078 377.95 648.21 379.638 648.94 380.412
C 651.263 382.876 653.581 385.356 655.749 387.957
C 662.094 395.568 667.923 403.441 673.095 411.898
C 674.976 414.974 677.212 418.266 678.625 421.574
C 678.224 422.978 676.323 424.267 675.374 425.351
C 672.578 428.544 669.859 431.805 667.044 434.983
C 660.893 441.925 654.648 448.79 648.566 455.791
C 645.838 458.93 643.112 462.046 640.265 465.082
C 639.346 466.062 638.566 467.433 637.526 468.265
C 629.046 462.805 621.356 455.816 613.364 449.672
C 609.395 446.622 605.458 443.536 601.514 440.454
C 599.564 438.93 597.181 437.528 595.528 435.69
C 595.665 435.461 595.803 435.232 595.94 435.002 Z"
opacity="1" fill="rgb(53,130,186)" fill-rule="evenodd" />
<path d="
M 666.275 521.954
C 674.604 513.246 681.855 503.547 690.105 494.771
C 691.967 492.79 693.846 490.728 695.527 488.592
C 696.313 487.593 697.275 486.031 698.486 485.569
C 700.759 500.644 699.814 516.313 698.191 531.392
C 697.817 534.872 697.191 538.408 696.405 541.819
C 696.323 542.171 695.647 545.283 695.591 545.28
C 694.614 544.209 693.208 543.445 692.051 542.575
C 689.266 540.478 686.489 538.362 683.72 536.243
C 677.812 531.722 672.085 526.728 666.022 522.447
C 666.107 522.283 666.191 522.118 666.275 521.954 Z"
opacity="1" fill="rgb(52,128,185)" fill-rule="evenodd" />

</svg>
